<svg xmlns="http://www.w3.org/2000/svg" xmlns:xlink="http://www.w3.org/1999/xlink" version="1.1" x="0px" y="0px" viewBox="0 0 90 112.5" enable-background="new 0 0 90 90" xml:space="preserve"><path d="M76,17.8C58.5,17.8,46.2,4.7,46,4.6c-0.3-0.3-0.6-0.5-1-0.5c-0.4,0-0.8,0.2-1,0.5C43.8,4.7,31.6,17.8,14,17.8  c-0.8,0-1.4,0.6-1.4,1.4c0,24.8,8.6,41.5,15.8,51.2C36.2,80.9,44,85.5,44.3,85.7c0.2,0.1,0.5,0.2,0.7,0.2c0.2,0,0.5-0.1,0.7-0.2  c0.3-0.2,8.1-4.8,15.9-15.3c7.2-9.7,15.8-26.4,15.8-51.2C77.4,18.4,76.7,17.8,76,17.8z M59.4,68.6C53.3,76.9,47.1,81.4,45,82.8  c-2-1.4-8.2-5.8-14.3-14.1c-6.8-9.2-14.9-24.9-15.2-48.1C30.7,20,41.7,10.7,45,7.5c3.3,3.2,14.3,12.5,29.5,13  C74.2,43.7,66.2,59.4,59.4,68.6z M35.3,29.9V35h-0.9c-3.1,0-5.6,2.5-5.6,5.6v20c0,3.1,2.5,5.6,5.6,5.6h21.1c3.1,0,5.6-2.5,5.6-5.6  v-20c0-3.1-2.5-5.6-5.6-5.6H38.1v-5.2c0-3.8,3.1-6.9,6.9-6.9c3.8,0,6.9,3.1,6.9,6.9v5.9c0,0.8,0.6,1.4,1.4,1.4s1.4-0.6,1.4-1.4v-5.9  c0-5.4-4.4-9.7-9.7-9.7S35.3,24.5,35.3,29.9z M58.4,40.7v20c0,1.6-1.3,2.8-2.8,2.8H34.4c-1.6,0-2.8-1.3-2.8-2.8v-20  c0-1.6,1.3-2.8,2.8-2.8h21.1C57.1,37.9,58.4,39.1,58.4,40.7z M42.3,55.6c-0.6-0.4-0.8-1.2-0.6-1.9l1.3-4.1c-0.5-0.5-0.7-1.1-0.7-1.9  c0-1.5,1.2-2.7,2.7-2.7c1.5,0,2.7,1.2,2.7,2.7c0,0.7-0.3,1.4-0.7,1.9l1.3,4.1c0.2,0.7,0,1.5-0.6,1.9c-0.6,0.5-1.6,0.8-2.7,0.8  S43,56.1,42.3,55.6z"/><text x="0" y="105" fill="#000000" font-size="5px" font-weight="bold" font-family="'Helvetica Neue', Helvetica, Arial-Unicode, Arial, Sans-serif">Created by Tommy Lau</text><text x="0" y="110" fill="#000000" font-size="5px" font-weight="bold" font-family="'Helvetica Neue', Helvetica, Arial-Unicode, Arial, Sans-serif">from the Noun Project</text></svg>