<svg xmlns="http://www.w3.org/2000/svg" xmlns:xlink="http://www.w3.org/1999/xlink" version="1.1" x="0px" y="0px" viewBox="0 0 100 125" enable-background="new 0 0 100 100" xml:space="preserve"><path fill="#000000" d="M95.889,36.427L75.731,16.27c-0.29-0.29-0.684-0.453-1.094-0.453s-0.804,0.163-1.094,0.453l-8.186,8.186  c-0.29,0.29-0.453,0.684-0.453,1.094s0.163,0.804,0.453,1.094l0.983,0.983c-0.674,0.437-1.459,0.673-2.281,0.673  c-1.123,0-2.179-0.437-2.974-1.232c-1.379-1.378-3.212-2.138-5.162-2.138c-1.95,0-3.783,0.759-5.162,2.138l-1.042,1.042  l-1.636-1.636c-1.379-1.379-3.212-2.138-5.162-2.138c-1.95,0-3.783,0.759-5.162,2.138c-0.794,0.794-1.85,1.232-2.974,1.232  c-0.822,0-1.607-0.236-2.281-0.674l0.984-0.984c0.604-0.604,0.604-1.584,0-2.188L25.3,15.674c-0.29-0.29-0.684-0.453-1.094-0.453  c-0.41,0-0.804,0.163-1.094,0.453L2.953,35.833c-0.604,0.604-0.604,1.584,0,2.188l3.783,3.783c1.468,1.469,3.421,2.277,5.497,2.277  c1.551,0,3.032-0.452,4.294-1.292l9.256,9.256l-1.091,1.091c-2.102,2.102-2.102,5.522,0,7.624c1.029,1.029,2.416,1.583,3.858,1.579  c0,0.015,0,0.03,0,0.045c0,1.44,0.561,2.794,1.579,3.812c1.03,1.03,2.418,1.584,3.86,1.579c-0.012,1.395,0.514,2.795,1.576,3.857  c1.03,1.03,2.407,1.59,3.86,1.579c-0.012,1.396,0.514,2.795,1.576,3.857c1.018,1.018,2.372,1.579,3.812,1.579  c1.44,0,2.794-0.561,3.812-1.579l1.091-1.091l1.685,1.685c1.018,1.018,2.372,1.579,3.812,1.579c1.44,0,2.794-0.561,3.812-1.579  c1.063-1.063,1.586-2.463,1.574-3.859c0.017,0,0.033,0.002,0.05,0.002c1.44,0,2.794-0.561,3.812-1.579  c1.018-1.018,1.579-2.372,1.579-3.812c0-0.016-0.002-0.032-0.002-0.048c0.016,0,0.031,0.002,0.047,0.002  c1.44,0,2.794-0.561,3.812-1.579c1.063-1.063,1.586-2.463,1.574-3.86c0.017,0,0.033,0.002,0.05,0.002  c1.44,0,2.794-0.561,3.812-1.579c2.102-2.102,2.102-5.522,0-7.624l-1.685-1.685l8.662-8.662c1.262,0.84,2.744,1.292,4.295,1.292  c2.077,0,4.029-0.809,5.497-2.277l3.783-3.783c0.29-0.29,0.453-0.684,0.453-1.094S96.179,36.717,95.889,36.427z M83.3,40.21  L69.69,26.6c-0.001-0.001-0.001-0.001-0.002-0.002l-1.049-1.049l5.998-5.998l17.969,17.969l-2.689,2.689  c-0.884,0.884-2.059,1.371-3.309,1.371C85.359,41.581,84.183,41.094,83.3,40.21z M73.149,59.167  c-0.434,0.434-1.011,0.673-1.624,0.673c-0.613,0-1.19-0.239-1.624-0.673l-1.685-1.685l-1.094-1.094l-1.094-1.094L63.334,52.6  c-0.896-0.896-0.896-2.353,0-3.249c0.434-0.434,1.01-0.673,1.624-0.673c0.613,0,1.19,0.239,1.624,0.673l2.694,2.694l1.094,1.094  l1.094,1.094l1.685,1.685C74.045,56.814,74.045,58.271,73.149,59.167z M67.713,64.604c-0.434,0.434-1.011,0.672-1.624,0.672  c-0.613,0-1.19-0.239-1.624-0.672l-1.685-1.685l-1.094-1.094l-1.094-1.094l-2.694-2.694c-0.896-0.896-0.896-2.353,0-3.248  c0.434-0.434,1.01-0.672,1.624-0.672c0.614,0,1.19,0.239,1.624,0.672l2.694,2.694l1.094,1.094l1.094,1.094l1.685,1.685  C68.608,62.251,68.609,63.708,67.713,64.604z M62.949,68.416c0,0.613-0.239,1.19-0.673,1.624c-0.434,0.434-1.01,0.673-1.624,0.673  c-0.614,0-1.19-0.239-1.624-0.673l-1.685-1.686l-1.094-1.094l-1.094-1.094l-2.694-2.694c-0.001-0.001-0.001-0.001-0.002-0.002  c-0.433-0.434-0.671-1.01-0.671-1.622c0-0.613,0.239-1.19,0.673-1.624c0.434-0.434,1.01-0.672,1.624-0.672  c0.613,0,1.19,0.239,1.624,0.672l2.694,2.694l1.094,1.094l1.094,1.094l1.685,1.686c0.001,0.001,0.001,0.001,0.002,0.002  C62.711,67.227,62.949,67.803,62.949,68.416z M56.84,75.477c-0.434,0.434-1.01,0.672-1.624,0.672c-0.614,0-1.19-0.239-1.624-0.672  l-1.685-1.685l-1.094-1.094l-1.094-1.094l-2.694-2.694c-0.895-0.896-0.896-2.353,0-3.249c0.434-0.434,1.011-0.672,1.624-0.672  s1.19,0.239,1.624,0.672l2.694,2.694l1.094,1.094l1.094,1.094l1.685,1.685C57.735,73.124,57.735,74.581,56.84,75.477z   M68.771,47.163c-1.018-1.018-2.372-1.579-3.812-1.579c-1.44,0-2.794,0.561-3.813,1.579c-1.063,1.063-1.587,2.464-1.574,3.86  c-0.017,0-0.033-0.002-0.05-0.002c-1.44,0-2.794,0.561-3.812,1.579c-1.063,1.063-1.586,2.463-1.574,3.86  c-0.017,0-0.033-0.002-0.05-0.002c-1.44,0-2.794,0.561-3.812,1.579c-1.018,1.018-1.579,2.372-1.579,3.812  c0,0.016,0.002,0.032,0.002,0.048c-0.016,0-0.031-0.002-0.047-0.002c-1.44,0-2.794,0.561-3.812,1.579  c-2.102,2.102-2.102,5.522,0,7.625l2.694,2.694l-1.091,1.091c-0.434,0.434-1.01,0.673-1.624,0.673c-0.614,0-1.19-0.239-1.624-0.673  c-0.895-0.896-0.895-2.353,0-3.249c0.302-0.302,0.453-0.698,0.453-1.094c0-0.396-0.151-0.792-0.453-1.094  c-0.604-0.604-1.584-0.604-2.188,0c-0.434,0.434-1.011,0.673-1.624,0.673s-1.19-0.239-1.624-0.673  c-0.434-0.434-0.673-1.01-0.673-1.624c0-0.613,0.239-1.19,0.673-1.624c0.302-0.302,0.453-0.698,0.453-1.094  s-0.151-0.792-0.453-1.094c-0.605-0.605-1.584-0.604-2.188,0c-0.434,0.434-1.01,0.672-1.624,0.672c-0.614,0-1.19-0.239-1.624-0.672  c-0.896-0.896-0.896-2.353,0-3.249c0.302-0.302,0.453-0.698,0.453-1.094s-0.151-0.792-0.453-1.094c-0.604-0.604-1.584-0.604-2.188,0  c-0.434,0.434-1.01,0.673-1.624,0.673c-0.614,0-1.19-0.239-1.624-0.673c-0.896-0.896-0.896-2.353,0-3.248l2.189-2.189c0,0,0,0,0,0  l0.002-0.002l11.104-11.104c0.602-0.433,1.333-0.677,2.084-0.679c0.952,0,1.846,0.371,2.519,1.044l4.794,4.794  c1.381,1.381,3.218,2.142,5.171,2.142c0,0,0,0,0,0c1.935,0,3.76-0.749,5.138-2.109l3.393-3.35c0.293-0.29,0.459-0.684,0.46-1.096  c0.001-0.412-0.162-0.808-0.453-1.099L51.906,30.299l1.042-1.042c0.794-0.794,1.851-1.232,2.974-1.232  c1.123,0,2.18,0.437,2.974,1.231c1.379,1.379,3.212,2.138,5.162,2.138c1.652,0,3.22-0.545,4.499-1.55l11.459,11.459l-8.553,8.553  L68.771,47.163z M37.537,40.221l-9.568,9.632l-9.144-9.144l11.459-11.459c1.279,1.005,2.847,1.55,4.499,1.55  c1.95,0,3.783-0.759,5.162-2.138c0.794-0.794,1.851-1.232,2.974-1.232c1.123,0,2.179,0.437,2.974,1.232l1.637,1.637l1.094,1.094  l1.094,1.094l10.275,10.276l-2.285,2.256c-0.795,0.785-1.847,1.217-2.963,1.217c0,0,0,0,0,0c-1.127,0-2.186-0.439-2.983-1.236  l-4.794-4.794c-0.892-0.892-1.994-1.493-3.197-1.771c-0.493-0.114-1.001-0.179-1.521-0.179c-0.172,0-0.343,0.013-0.514,0.027  c-1.312,0.106-2.574,0.604-3.606,1.418C37.922,39.863,37.723,40.034,37.537,40.221z M12.233,40.986c-1.25,0-2.425-0.487-3.309-1.37  l-2.689-2.689l17.97-17.97l5.998,5.998l-1.051,1.051c0,0-0.001,0-0.001,0.001l-13.61,13.61C14.659,40.5,13.483,40.986,12.233,40.986  z"/><text x="0" y="115" fill="#000000" font-size="5px" font-weight="bold" font-family="'Helvetica Neue', Helvetica, Arial-Unicode, Arial, Sans-serif">Created by Wesley Hare</text><text x="0" y="120" fill="#000000" font-size="5px" font-weight="bold" font-family="'Helvetica Neue', Helvetica, Arial-Unicode, Arial, Sans-serif">from the Noun Project</text></svg>