<svg xmlns="http://www.w3.org/2000/svg" xmlns:xlink="http://www.w3.org/1999/xlink" version="1.1" x="0px" y="0px" viewBox="0 0 100 125" enable-background="new 0 0 100 100" xml:space="preserve"><g><g><g><g><path d="M81.742,74.701c-3.964,0-7.191-3.226-7.191-7.192s3.226-7.192,7.191-7.192c3.969,0,7.196,3.226,7.196,7.192      C88.94,71.476,85.713,74.701,81.742,74.701z M81.742,61.792c-3.151,0-5.716,2.566-5.716,5.718c0,3.152,2.563,5.717,5.716,5.717      c3.156,0,5.721-2.563,5.721-5.717C87.465,64.358,84.898,61.792,81.742,61.792z M81.742,70.394c-1.589,0-2.885-1.293-2.885-2.885      c0-1.589,1.292-2.883,2.885-2.883c1.592,0,2.887,1.292,2.887,2.883C84.629,69.101,83.334,70.394,81.742,70.394z M81.742,66.104      c-0.776,0-1.409,0.631-1.409,1.407s0.633,1.408,1.409,1.408c0.777,0,1.411-0.632,1.411-1.408S82.52,66.104,81.742,66.104z"/><path d="M21.463,74.701c-3.965,0-7.193-3.226-7.193-7.192s3.228-7.192,7.193-7.192c3.966,0,7.193,3.226,7.193,7.192      S25.429,74.701,21.463,74.701z M21.463,61.792c-3.152,0-5.717,2.566-5.717,5.718c0,3.152,2.565,5.717,5.717,5.717      c3.153,0,5.718-2.563,5.718-5.717C27.181,64.358,24.616,61.792,21.463,61.792z M21.463,70.394c-1.589,0-2.882-1.293-2.882-2.885      c0-1.589,1.293-2.883,2.882-2.883c1.59,0,2.883,1.292,2.883,2.883C24.346,69.101,23.053,70.394,21.463,70.394z M21.463,66.104      c-0.775,0-1.407,0.631-1.407,1.407s0.632,1.408,1.407,1.408c0.776,0,1.408-0.632,1.408-1.408S22.239,66.104,21.463,66.104z"/></g></g><path d="M89.9,69.241l0.087-1.146c0.015-0.198,0.026-0.389,0.026-0.585c0-4.558-3.71-8.266-8.271-8.266    c-4.558,0-8.263,3.71-8.263,8.266c0,0.305,0.019,0.605,0.049,0.901l0.083,0.813h-44.01l0.079-0.811    c0.03-0.297,0.049-0.599,0.049-0.903c0-4.558-3.709-8.266-8.268-8.266s-8.267,3.71-8.267,8.266c0,0.305,0.019,0.606,0.048,0.903    l0.08,0.811h-2.191C7.751,69.224,5,66.473,5,63.092V31.431c0-3.382,2.751-6.132,6.132-6.132H52.19    c6.823,0,9.414,1.848,19.301,9.677c4.359,3.451,9.568,7.579,9.749,7.735l0,0c0.392,0.356,1.186,0.896,2.104,1.521    C87.419,47.003,95,52.162,95,59.323v3.769c0,2.548-1.616,4.857-4.02,5.751L89.9,69.241z M31.202,67.75h40.805    c-0.002-0.08-0.003-0.16-0.003-0.239c0-5.371,4.368-9.742,9.738-9.742c5.183,0,9.434,4.065,9.73,9.172    c1.258-0.859,2.051-2.296,2.051-3.847v-3.771c0-6.378-7.161-11.252-11.008-13.872c-0.995-0.677-1.781-1.212-2.251-1.635    c-0.102-0.083-1.053-0.847-9.69-7.685c-9.752-7.723-12.037-9.357-18.382-9.357H11.133c-2.568,0-4.657,2.089-4.657,4.657v31.661    c0,2.566,2.089,4.656,4.657,4.656h0.59c-0.002-0.08-0.003-0.16-0.003-0.239c0-5.371,4.37-9.74,9.742-9.74s9.743,4.369,9.743,9.74    C31.206,67.59,31.205,67.67,31.202,67.75z M70.203,65.465H32.877v-1.476h37.326V65.465z M56.914,63.261h-1.476v-25.11h1.476    V63.261z M31.098,58.209h-1.476v-3.36H8.791v-2.586h1.476v1.11h26.185v1.476h-5.354V58.209z M91.557,57.714    c-1.243,0-2.869-1.547-3.248-1.928c-0.933-0.932-1.93-2.274-1.93-3.251c0.002-0.426,0.18-0.693,0.329-0.843    c0,0,1.146,0.868,1.146,0.843c-0.004,0.243,0.43,1.14,1.496,2.208c1.056,1.057,1.944,1.488,2.192,1.488    c0.021,0,0.848,1.148,0.848,1.148C92.156,57.617,91.868,57.714,91.557,57.714z M77.41,52.662c-0.22,0-0.442-0.028-0.665-0.084    l-14.534-3.003c-1.517-0.378-2.683-1.87-2.683-3.403v-6.443c0-1.596,1.298-2.893,2.895-2.893h4.941    c1.368,0,3.246,0.695,4.275,1.583l6.185,4.694c1.098,0.94,1.932,2.753,1.932,4.153v2.958c0,0.799-0.328,1.512-0.9,1.958    C78.452,52.496,77.945,52.662,77.41,52.662z M62.425,38.31c-0.783,0-1.419,0.635-1.419,1.417v6.443    c0,0.843,0.718,1.762,1.535,1.966l14.532,3.004c0.361,0.087,0.663,0.044,0.878-0.124c0.216-0.168,0.334-0.451,0.334-0.796v-2.957    c0-0.969-0.645-2.375-1.383-3.006l-6.184-4.695c-0.795-0.682-2.342-1.253-3.348-1.253H62.425z M31.098,52.263h-1.476V38.151h1.476    V52.263z M51.327,49.21h-7.131c-1.402,0-2.542-1.141-2.542-2.543V39.54c0-1.403,1.141-2.543,2.542-2.543h7.131    c1.398,0,2.538,1.14,2.538,2.543v7.127C53.865,48.07,52.726,49.21,51.327,49.21z M44.195,38.474c-0.588,0-1.067,0.479-1.067,1.067    v7.127c0,0.589,0.479,1.068,1.067,1.068h7.132c0.586,0,1.063-0.479,1.063-1.068v-7.127c0-0.588-0.477-1.067-1.063-1.067H44.195z     M61.849,35.672H7.095v-1.476h54.754V35.672z"/></g></g><text x="0" y="115" fill="#000000" font-size="5px" font-weight="bold" font-family="'Helvetica Neue', Helvetica, Arial-Unicode, Arial, Sans-serif">Created by Juan Pablo Bravo</text><text x="0" y="120" fill="#000000" font-size="5px" font-weight="bold" font-family="'Helvetica Neue', Helvetica, Arial-Unicode, Arial, Sans-serif">from the Noun Project</text></svg>