<svg xmlns="http://www.w3.org/2000/svg" xmlns:xlink="http://www.w3.org/1999/xlink" version="1.1" x="0px" y="0px" viewBox="0 0 100 125" enable-background="new 0 0 100 100" xml:space="preserve"><path d="M99.774,21.968c-1.163-5.922-5.167-12.65-11.001-18.479c-0.039-0.039-0.088-0.056-0.131-0.087  c-0.041-0.029-0.07-0.069-0.116-0.093C88.519,3.305,88.51,3.304,88.501,3.3c-0.005-0.002-0.008-0.008-0.014-0.01l-6.576-3.051  c-1.487-0.771-3.552,0.328-6.139,3.27c-2.232,2.539-4.63,6.19-6.752,10.284c-2.859,5.516-7.303,16.449-3.648,18.346l6.421,3.329  c0.263,0.159,0.51,0.351,0.73,0.57c1.249,1.248,1.484,3.157,0.581,4.665c-0.296,0.4-0.592,0.799-0.892,1.197  c-0.001,0-0.002,0.001-0.002,0.001c-4.274,5.687-9.014,11.145-14.088,16.222c-5.071,5.068-10.529,9.808-16.221,14.089  c0,0.001-0.001,0.001-0.001,0.001c-0.401,0.302-0.804,0.601-1.207,0.898c-1.506,0.894-3.41,0.658-4.657-0.589  c-0.219-0.219-0.413-0.467-0.544-0.68l-3.354-6.471c-1.897-3.654-12.83,0.789-18.346,3.65C9.7,71.143,6.047,73.54,3.508,75.771  c-2.941,2.585-4.042,4.65-3.291,6.098l3.073,6.618c0.003,0.008,0.009,0.013,0.013,0.02c0.003,0.007,0.003,0.014,0.006,0.021  c0.022,0.044,0.055,0.078,0.083,0.116c0.024,0.033,0.043,0.069,0.07,0.099c0.007,0.008,0.014,0.016,0.021,0.023  c0.002,0.002,0.003,0.006,0.005,0.008c5.841,5.846,12.586,9.854,18.518,11.01c0.035,0.01,0.07,0.018,0.106,0.023  c0.068,0.012,0.136,0.018,0.203,0.012v0.003c0.17-0.005,1.723-0.004,1.721-0.005c15.411,0,32.995-15.597,46.592-29.186  c14.436-14.445,29.192-31.278,29.192-46.593v-1.765C99.823,22.168,99.807,22.066,99.774,21.968z M70.796,14.713  c2.05-3.954,4.351-7.464,6.479-9.884c2.354-2.677,3.546-2.903,3.755-2.795l4.783,2.22c-3.263,2.856-7.438,10.573-8.924,13.438  c-1.498,2.888-5.444,10.843-5.873,15.12l-4.723-2.449C65.442,29.921,65.948,24.064,70.796,14.713z M4.829,77.273  c2.42-2.128,5.931-4.428,9.885-6.477c9.352-4.849,15.208-5.354,15.65-4.505l2.461,4.748c-4.291,0.403-12.246,4.351-15.133,5.847  c-4.106,2.129-7.841,4.388-10.518,6.362c-1.313,0.968-2.277,1.795-2.939,2.522l-2.222-4.783C1.925,80.819,2.151,79.627,4.829,77.273  z M97.823,24.038c0,14.585-14.461,31.023-28.606,45.179c-13.324,13.315-30.5,28.6-45.178,28.6c-0.658,0-1.165,0-1.553,0.022  c-0.007-0.002-0.015-0.003-0.022-0.005c-5.375-1.025-11.784-4.809-17.222-10.148c0.74-1.29,5.577-4.982,13.371-9.023  c8.031-4.162,13.965-5.98,15.217-5.715c0.229,0.359,0.497,0.691,0.794,0.989c1.924,1.925,4.88,2.267,7.189,0.834  c0.046-0.028,0.089-0.061,0.13-0.096c0.387-0.286,0.775-0.574,1.162-0.865c0,0,0-0.001,0.001-0.001  c5.765-4.335,11.292-9.137,16.428-14.27h0.001c0.001-0.001,0.002-0.002,0.003-0.003s0.002-0.002,0.003-0.003c0,0,0,0,0-0.001  c5.14-5.143,9.94-10.67,14.271-16.43c0.001,0,0.001-0.001,0.001-0.002c0.292-0.388,0.582-0.776,0.87-1.167  c0.032-0.038,0.063-0.078,0.089-0.121c1.435-2.31,1.092-5.266-0.835-7.191c-0.291-0.29-0.611-0.548-0.987-0.79  c-0.269-1.247,1.549-7.184,5.716-15.219c4.04-7.793,7.732-12.63,9.022-13.372c5.323,5.422,9.1,11.807,10.137,17.171V24.038z"/><text x="0" y="115" fill="#000000" font-size="5px" font-weight="bold" font-family="'Helvetica Neue', Helvetica, Arial-Unicode, Arial, Sans-serif">Created by Jake Dunham</text><text x="0" y="120" fill="#000000" font-size="5px" font-weight="bold" font-family="'Helvetica Neue', Helvetica, Arial-Unicode, Arial, Sans-serif">from the Noun Project</text></svg>